<svg width="453" height="254" viewBox="0 0 453 254" fill="none" xmlns="http://www.w3.org/2000/svg">
<path d="M299.4 83.9851V104.985H301.95V83.9851H299.4ZM310.2 83.9851L301.17 93.8851L310.65 104.985H313.8L304.26 93.8251L313.35 83.9851H310.2ZM325.669 91.1851H322.969L318.709 101.865L319.699 101.985L315.319 91.1851H312.469L317.749 103.035L313.969 111.585H316.669L325.669 91.1851ZM330.182 111.585V91.1851H327.782V111.585H330.182ZM341.732 98.0851C341.732 96.5851 341.422 95.3051 340.802 94.2451C340.182 93.1651 339.352 92.3351 338.312 91.7551C337.292 91.1751 336.152 90.8851 334.892 90.8851C333.752 90.8851 332.742 91.1751 331.862 91.7551C331.002 92.3351 330.322 93.1651 329.822 94.2451C329.342 95.3051 329.102 96.5851 329.102 98.0851C329.102 99.5651 329.342 100.845 329.822 101.925C330.322 103.005 331.002 103.835 331.862 104.415C332.742 104.995 333.752 105.285 334.892 105.285C336.152 105.285 337.292 104.995 338.312 104.415C339.352 103.835 340.182 103.005 340.802 101.925C341.422 100.845 341.732 99.5651 341.732 98.0851ZM339.302 98.0851C339.302 99.1451 339.082 100.045 338.642 100.785C338.222 101.525 337.652 102.085 336.932 102.465C336.232 102.845 335.452 103.035 334.592 103.035C333.892 103.035 333.202 102.845 332.522 102.465C331.842 102.085 331.282 101.525 330.842 100.785C330.402 100.045 330.182 99.1451 330.182 98.0851C330.182 97.0251 330.402 96.1251 330.842 95.3851C331.282 94.6451 331.842 94.0851 332.522 93.7051C333.202 93.3251 333.892 93.1351 334.592 93.1351C335.452 93.1351 336.232 93.3251 336.932 93.7051C337.652 94.0851 338.222 94.6451 338.642 95.3851C339.082 96.1251 339.302 97.0251 339.302 98.0851ZM346.121 98.0851C346.121 97.1251 346.321 96.2751 346.721 95.5351C347.141 94.7751 347.701 94.1851 348.401 93.7651C349.121 93.3451 349.931 93.1351 350.831 93.1351C351.571 93.1351 352.261 93.2551 352.901 93.4951C353.561 93.7151 354.131 94.0151 354.611 94.3951C355.091 94.7751 355.431 95.1951 355.631 95.6551V92.6551C355.151 92.0951 354.461 91.6651 353.561 91.3651C352.681 91.0451 351.771 90.8851 350.831 90.8851C349.491 90.8851 348.281 91.1951 347.201 91.8151C346.121 92.4351 345.261 93.2851 344.621 94.3651C344.001 95.4451 343.691 96.6851 343.691 98.0851C343.691 99.4651 344.001 100.705 344.621 101.805C345.261 102.885 346.121 103.735 347.201 104.355C348.281 104.975 349.491 105.285 350.831 105.285C351.771 105.285 352.681 105.135 353.561 104.835C354.461 104.515 355.151 104.075 355.631 103.515V100.515C355.431 100.955 355.091 101.375 354.611 101.775C354.131 102.155 353.561 102.465 352.901 102.705C352.261 102.925 351.571 103.035 350.831 103.035C349.931 103.035 349.121 102.825 348.401 102.405C347.701 101.965 347.141 101.375 346.721 100.635C346.321 99.8951 346.121 99.0451 346.121 98.0851ZM371.817 91.1851V104.985H374.217V91.1851H371.817ZM359.367 91.1851V104.985H361.767V91.1851H359.367ZM360.777 98.5051H365.067C365.947 98.5051 366.607 98.6951 367.047 99.0751C367.487 99.4551 367.707 99.9951 367.707 100.695C367.707 101.155 367.607 101.555 367.407 101.895C367.207 102.215 366.907 102.465 366.507 102.645C366.127 102.805 365.647 102.885 365.067 102.885H360.777V104.985H365.067C366.027 104.985 366.887 104.835 367.647 104.535C368.407 104.235 369.007 103.765 369.447 103.125C369.887 102.485 370.107 101.675 370.107 100.695C370.107 99.2151 369.617 98.1351 368.637 97.4551C367.677 96.7551 366.487 96.4051 365.067 96.4051H360.777V98.5051ZM300.33 150.935C300.33 150.375 300.46 149.895 300.72 149.495C300.98 149.095 301.37 148.785 301.89 148.565C302.43 148.345 303.1 148.235 303.9 148.235C304.78 148.235 305.57 148.355 306.27 148.595C306.97 148.815 307.66 149.165 308.34 149.645V148.235C308.2 148.055 307.94 147.825 307.56 147.545C307.18 147.245 306.67 146.985 306.03 146.765C305.41 146.525 304.66 146.405 303.78 146.405C302.58 146.405 301.54 146.595 300.66 146.975C299.78 147.335 299.1 147.855 298.62 148.535C298.14 149.215 297.9 150.045 297.9 151.025C297.9 151.965 298.11 152.755 298.53 153.395C298.97 154.015 299.55 154.485 300.27 154.805C300.99 155.125 301.78 155.285 302.64 155.285C303.6 155.285 304.47 155.125 305.25 154.805C306.03 154.465 306.65 153.985 307.11 153.365C307.59 152.725 307.83 151.965 307.83 151.085L307.35 149.585C307.35 150.445 307.17 151.135 306.81 151.655C306.47 152.175 305.99 152.555 305.37 152.795C304.75 153.035 304.04 153.155 303.24 153.155C302.7 153.155 302.21 153.075 301.77 152.915C301.33 152.735 300.98 152.485 300.72 152.165C300.46 151.825 300.33 151.415 300.33 150.935ZM300.33 144.425C300.55 144.265 300.85 144.075 301.23 143.855C301.63 143.615 302.1 143.415 302.64 143.255C303.18 143.075 303.78 142.985 304.44 142.985C305.2 142.985 305.87 143.165 306.45 143.525C307.05 143.865 307.35 144.385 307.35 145.085V154.985H309.75V145.085C309.75 144.185 309.52 143.425 309.06 142.805C308.62 142.185 308 141.715 307.2 141.395C306.42 141.055 305.5 140.885 304.44 140.885C303.2 140.885 302.14 141.075 301.26 141.455C300.38 141.835 299.68 142.215 299.16 142.595L300.33 144.425ZM313.661 141.185V154.985H316.061V141.185H313.661ZM321.161 141.185L315.161 146.885L321.761 154.985H324.761L318.161 146.885L324.161 141.185H321.161ZM324.923 141.185V143.435H333.023V141.185H324.923ZM327.773 141.785V154.985H330.173V141.785H327.773ZM335.322 148.685H347.112C347.132 148.565 347.142 148.445 347.142 148.325C347.142 148.205 347.142 148.085 347.142 147.965C347.142 146.505 346.872 145.255 346.332 144.215C345.792 143.155 345.032 142.335 344.052 141.755C343.072 141.175 341.932 140.885 340.632 140.885C339.452 140.885 338.382 141.125 337.422 141.605C336.482 142.085 335.712 142.755 335.112 143.615C334.512 144.475 334.112 145.475 333.912 146.615C333.872 146.855 333.842 147.095 333.822 147.335C333.802 147.575 333.792 147.825 333.792 148.085C333.792 149.465 334.072 150.705 334.632 151.805C335.212 152.885 335.992 153.735 336.972 154.355C337.972 154.975 339.092 155.285 340.332 155.285C341.532 155.285 342.532 155.145 343.332 154.865C344.132 154.565 344.812 154.155 345.372 153.635C345.932 153.095 346.442 152.475 346.902 151.775L344.952 150.545C344.652 151.045 344.292 151.485 343.872 151.865C343.452 152.225 342.972 152.515 342.432 152.735C341.912 152.935 341.312 153.035 340.632 153.035C339.732 153.035 338.952 152.845 338.292 152.465C337.632 152.085 337.122 151.525 336.762 150.785C336.402 150.045 336.222 149.145 336.222 148.085L336.282 147.185C336.282 146.325 336.472 145.585 336.852 144.965C337.252 144.325 337.782 143.835 338.442 143.495C339.102 143.155 339.832 142.985 340.632 142.985C341.432 142.985 342.102 143.145 342.642 143.465C343.202 143.765 343.632 144.195 343.932 144.755C344.252 145.295 344.452 145.925 344.532 146.645H335.322V148.685ZM352.682 161.585V141.185H350.282V161.585H352.682ZM364.232 148.085C364.232 146.585 363.922 145.305 363.302 144.245C362.682 143.165 361.852 142.335 360.812 141.755C359.792 141.175 358.652 140.885 357.392 140.885C356.252 140.885 355.242 141.175 354.362 141.755C353.502 142.335 352.822 143.165 352.322 144.245C351.842 145.305 351.602 146.585 351.602 148.085C351.602 149.565 351.842 150.845 352.322 151.925C352.822 153.005 353.502 153.835 354.362 154.415C355.242 154.995 356.252 155.285 357.392 155.285C358.652 155.285 359.792 154.995 360.812 154.415C361.852 153.835 362.682 153.005 363.302 151.925C363.922 150.845 364.232 149.565 364.232 148.085ZM361.802 148.085C361.802 149.145 361.582 150.045 361.142 150.785C360.722 151.525 360.152 152.085 359.432 152.465C358.732 152.845 357.952 153.035 357.092 153.035C356.392 153.035 355.702 152.845 355.022 152.465C354.342 152.085 353.782 151.525 353.342 150.785C352.902 150.045 352.682 149.145 352.682 148.085C352.682 147.025 352.902 146.125 353.342 145.385C353.782 144.645 354.342 144.085 355.022 143.705C355.702 143.325 356.392 143.135 357.092 143.135C357.952 143.135 358.732 143.325 359.432 143.705C360.152 144.085 360.722 144.645 361.142 145.385C361.582 146.125 361.802 147.025 361.802 148.085ZM368.621 148.085C368.621 147.125 368.821 146.275 369.221 145.535C369.641 144.775 370.201 144.185 370.901 143.765C371.621 143.345 372.431 143.135 373.331 143.135C374.071 143.135 374.761 143.255 375.401 143.495C376.061 143.715 376.631 144.015 377.111 144.395C377.591 144.775 377.931 145.195 378.131 145.655V142.655C377.651 142.095 376.961 141.665 376.061 141.365C375.181 141.045 374.271 140.885 373.331 140.885C371.991 140.885 370.781 141.195 369.701 141.815C368.621 142.435 367.761 143.285 367.121 144.365C366.501 145.445 366.191 146.685 366.191 148.085C366.191 149.465 366.501 150.705 367.121 151.805C367.761 152.885 368.621 153.735 369.701 154.355C370.781 154.975 371.991 155.285 373.331 155.285C374.271 155.285 375.181 155.135 376.061 154.835C376.961 154.515 377.651 154.075 378.131 153.515V150.515C377.931 150.955 377.591 151.375 377.111 151.775C376.631 152.155 376.061 152.465 375.401 152.705C374.761 152.925 374.071 153.035 373.331 153.035C372.431 153.035 371.621 152.825 370.901 152.405C370.201 151.965 369.641 151.375 369.221 150.635C368.821 149.895 368.621 149.045 368.621 148.085ZM381.717 141.185V154.985H384.117V141.185H381.717ZM389.217 141.185L383.217 146.885L389.817 154.985H392.817L386.217 146.885L392.217 141.185H389.217ZM393.441 148.085C393.441 149.465 393.751 150.705 394.371 151.805C395.011 152.885 395.871 153.735 396.951 154.355C398.031 154.975 399.241 155.285 400.581 155.285C401.941 155.285 403.151 154.975 404.211 154.355C405.291 153.735 406.141 152.885 406.761 151.805C407.401 150.705 407.721 149.465 407.721 148.085C407.721 146.685 407.401 145.445 406.761 144.365C406.141 143.285 405.291 142.435 404.211 141.815C403.151 141.195 401.941 140.885 400.581 140.885C399.241 140.885 398.031 141.195 396.951 141.815C395.871 142.435 395.011 143.285 394.371 144.365C393.751 145.445 393.441 146.685 393.441 148.085ZM395.871 148.085C395.871 147.125 396.071 146.275 396.471 145.535C396.891 144.775 397.451 144.185 398.151 143.765C398.871 143.345 399.681 143.135 400.581 143.135C401.481 143.135 402.281 143.345 402.981 143.765C403.701 144.185 404.261 144.775 404.661 145.535C405.081 146.275 405.291 147.125 405.291 148.085C405.291 149.045 405.081 149.895 404.661 150.635C404.261 151.375 403.701 151.965 402.981 152.405C402.281 152.825 401.481 153.035 400.581 153.035C399.681 153.035 398.871 152.825 398.151 152.405C397.451 151.965 396.891 151.375 396.471 150.635C396.071 149.895 395.871 149.045 395.871 148.085ZM411.168 141.185V154.985H413.568V143.435H418.518V141.185H411.168ZM419.28 148.085C419.28 149.465 419.59 150.705 420.21 151.805C420.85 152.885 421.71 153.735 422.79 154.355C423.87 154.975 425.08 155.285 426.42 155.285C427.78 155.285 428.99 154.975 430.05 154.355C431.13 153.735 431.98 152.885 432.6 151.805C433.24 150.705 433.56 149.465 433.56 148.085C433.56 146.685 433.24 145.445 432.6 144.365C431.98 143.285 431.13 142.435 430.05 141.815C428.99 141.195 427.78 140.885 426.42 140.885C425.08 140.885 423.87 141.195 422.79 141.815C421.71 142.435 420.85 143.285 420.21 144.365C419.59 145.445 419.28 146.685 419.28 148.085ZM421.71 148.085C421.71 147.125 421.91 146.275 422.31 145.535C422.73 144.775 423.29 144.185 423.99 143.765C424.71 143.345 425.52 143.135 426.42 143.135C427.32 143.135 428.12 143.345 428.82 143.765C429.54 144.185 430.1 144.775 430.5 145.535C430.92 146.275 431.13 147.125 431.13 148.085C431.13 149.045 430.92 149.895 430.5 150.635C430.1 151.375 429.54 151.965 428.82 152.405C428.12 152.825 427.32 153.035 426.42 153.035C425.52 153.035 424.71 152.825 423.99 152.405C423.29 151.965 422.73 151.375 422.31 150.635C421.91 149.895 421.71 149.045 421.71 148.085ZM312.36 204.985H315.06L311.46 190.135L310.11 194.035L312.36 204.985ZM305.16 202.915L306.06 205.915L311.76 194.935L311.46 190.135L305.16 202.915ZM306.06 205.915L306.96 202.915L300.75 190.135L300.45 194.935L306.06 205.915ZM297.15 204.985H299.85L302.1 194.035L300.75 190.135L297.15 204.985ZM318.553 200.935C318.553 200.375 318.683 199.895 318.943 199.495C319.203 199.095 319.593 198.785 320.113 198.565C320.653 198.345 321.323 198.235 322.123 198.235C323.003 198.235 323.793 198.355 324.493 198.595C325.193 198.815 325.883 199.165 326.563 199.645V198.235C326.423 198.055 326.163 197.825 325.783 197.545C325.403 197.245 324.893 196.985 324.253 196.765C323.633 196.525 322.883 196.405 322.003 196.405C320.803 196.405 319.763 196.595 318.883 196.975C318.003 197.335 317.323 197.855 316.843 198.535C316.363 199.215 316.123 200.045 316.123 201.025C316.123 201.965 316.333 202.755 316.753 203.395C317.193 204.015 317.773 204.485 318.493 204.805C319.213 205.125 320.003 205.285 320.863 205.285C321.823 205.285 322.693 205.125 323.473 204.805C324.253 204.465 324.873 203.985 325.333 203.365C325.813 202.725 326.053 201.965 326.053 201.085L325.573 199.585C325.573 200.445 325.393 201.135 325.033 201.655C324.693 202.175 324.213 202.555 323.593 202.795C322.973 203.035 322.263 203.155 321.463 203.155C320.923 203.155 320.433 203.075 319.993 202.915C319.553 202.735 319.203 202.485 318.943 202.165C318.683 201.825 318.553 201.415 318.553 200.935ZM318.553 194.425C318.773 194.265 319.073 194.075 319.453 193.855C319.853 193.615 320.323 193.415 320.863 193.255C321.403 193.075 322.003 192.985 322.663 192.985C323.423 192.985 324.093 193.165 324.673 193.525C325.273 193.865 325.573 194.385 325.573 195.085V204.985H327.973V195.085C327.973 194.185 327.743 193.425 327.283 192.805C326.843 192.185 326.223 191.715 325.423 191.395C324.643 191.055 323.723 190.885 322.663 190.885C321.423 190.885 320.363 191.075 319.483 191.455C318.603 191.835 317.903 192.215 317.383 192.595L318.553 194.425ZM333.113 198.085C333.113 197.125 333.313 196.275 333.713 195.535C334.133 194.775 334.693 194.185 335.393 193.765C336.113 193.345 336.923 193.135 337.823 193.135C338.563 193.135 339.253 193.255 339.893 193.495C340.553 193.715 341.123 194.015 341.603 194.395C342.083 194.775 342.423 195.195 342.623 195.655V192.655C342.143 192.095 341.453 191.665 340.553 191.365C339.673 191.045 338.763 190.885 337.823 190.885C336.483 190.885 335.273 191.195 334.193 191.815C333.113 192.435 332.253 193.285 331.613 194.365C330.993 195.445 330.683 196.685 330.683 198.085C330.683 199.465 330.993 200.705 331.613 201.805C332.253 202.885 333.113 203.735 334.193 204.355C335.273 204.975 336.483 205.285 337.823 205.285C338.763 205.285 339.673 205.135 340.553 204.835C341.453 204.515 342.143 204.075 342.623 203.515V200.515C342.423 200.955 342.083 201.375 341.603 201.775C341.123 202.155 340.553 202.465 339.893 202.705C339.253 202.925 338.563 203.035 337.823 203.035C336.923 203.035 336.113 202.825 335.393 202.405C334.693 201.965 334.133 201.375 333.713 200.635C333.313 199.895 333.113 199.045 333.113 198.085ZM344.259 191.185V193.435H352.359V191.185H344.259ZM347.109 191.785V204.985H349.509V191.785H347.109ZM354.658 198.685H366.448C366.468 198.565 366.478 198.445 366.478 198.325C366.478 198.205 366.478 198.085 366.478 197.965C366.478 196.505 366.208 195.255 365.668 194.215C365.128 193.155 364.368 192.335 363.388 191.755C362.408 191.175 361.268 190.885 359.968 190.885C358.788 190.885 357.718 191.125 356.758 191.605C355.818 192.085 355.048 192.755 354.448 193.615C353.848 194.475 353.448 195.475 353.248 196.615C353.208 196.855 353.178 197.095 353.158 197.335C353.138 197.575 353.128 197.825 353.128 198.085C353.128 199.465 353.408 200.705 353.968 201.805C354.548 202.885 355.328 203.735 356.308 204.355C357.308 204.975 358.428 205.285 359.668 205.285C360.868 205.285 361.868 205.145 362.668 204.865C363.468 204.565 364.148 204.155 364.708 203.635C365.268 203.095 365.778 202.475 366.238 201.775L364.288 200.545C363.988 201.045 363.628 201.485 363.208 201.865C362.788 202.225 362.308 202.515 361.768 202.735C361.248 202.935 360.648 203.035 359.968 203.035C359.068 203.035 358.288 202.845 357.628 202.465C356.968 202.085 356.458 201.525 356.098 200.785C355.738 200.045 355.558 199.145 355.558 198.085L355.618 197.185C355.618 196.325 355.808 195.585 356.188 194.965C356.588 194.325 357.118 193.835 357.778 193.495C358.438 193.155 359.168 192.985 359.968 192.985C360.768 192.985 361.438 193.145 361.978 193.465C362.538 193.765 362.968 194.195 363.268 194.755C363.588 195.295 363.788 195.925 363.868 196.645H354.658V198.685ZM372.018 211.585V191.185H369.618V211.585H372.018ZM383.568 198.085C383.568 196.585 383.258 195.305 382.638 194.245C382.018 193.165 381.188 192.335 380.148 191.755C379.128 191.175 377.988 190.885 376.728 190.885C375.588 190.885 374.578 191.175 373.698 191.755C372.838 192.335 372.158 193.165 371.658 194.245C371.178 195.305 370.938 196.585 370.938 198.085C370.938 199.565 371.178 200.845 371.658 201.925C372.158 203.005 372.838 203.835 373.698 204.415C374.578 204.995 375.588 205.285 376.728 205.285C377.988 205.285 379.128 204.995 380.148 204.415C381.188 203.835 382.018 203.005 382.638 201.925C383.258 200.845 383.568 199.565 383.568 198.085ZM381.138 198.085C381.138 199.145 380.918 200.045 380.478 200.785C380.058 201.525 379.488 202.085 378.768 202.465C378.068 202.845 377.288 203.035 376.428 203.035C375.728 203.035 375.038 202.845 374.358 202.465C373.678 202.085 373.118 201.525 372.678 200.785C372.238 200.045 372.018 199.145 372.018 198.085C372.018 197.025 372.238 196.125 372.678 195.385C373.118 194.645 373.678 194.085 374.358 193.705C375.038 193.325 375.728 193.135 376.428 193.135C377.288 193.135 378.068 193.325 378.768 193.705C379.488 194.085 380.058 194.645 380.478 195.385C380.918 196.125 381.138 197.025 381.138 198.085ZM387.957 198.085C387.957 197.125 388.157 196.275 388.557 195.535C388.977 194.775 389.537 194.185 390.237 193.765C390.957 193.345 391.767 193.135 392.667 193.135C393.407 193.135 394.097 193.255 394.737 193.495C395.397 193.715 395.967 194.015 396.447 194.395C396.927 194.775 397.267 195.195 397.467 195.655V192.655C396.987 192.095 396.297 191.665 395.397 191.365C394.517 191.045 393.607 190.885 392.667 190.885C391.327 190.885 390.117 191.195 389.037 191.815C387.957 192.435 387.097 193.285 386.457 194.365C385.837 195.445 385.527 196.685 385.527 198.085C385.527 199.465 385.837 200.705 386.457 201.805C387.097 202.885 387.957 203.735 389.037 204.355C390.117 204.975 391.327 205.285 392.667 205.285C393.607 205.285 394.517 205.135 395.397 204.835C396.297 204.515 396.987 204.075 397.467 203.515V200.515C397.267 200.955 396.927 201.375 396.447 201.775C395.967 202.155 395.397 202.465 394.737 202.705C394.097 202.925 393.407 203.035 392.667 203.035C391.767 203.035 390.957 202.825 390.237 202.405C389.537 201.965 388.977 201.375 388.557 200.635C388.157 199.895 387.957 199.045 387.957 198.085ZM399.103 191.185V193.435H407.203V191.185H399.103ZM401.953 191.785V204.985H404.353V191.785H401.953ZM411.021 197.785V199.045H415.011C415.471 199.045 415.861 199.095 416.181 199.195C416.521 199.275 416.791 199.405 416.991 199.585C417.211 199.765 417.371 199.965 417.471 200.185C417.591 200.405 417.651 200.655 417.651 200.935C417.651 201.475 417.431 201.935 416.991 202.315C416.571 202.695 415.911 202.885 415.011 202.885H411.021V204.985H415.611C417.191 204.985 418.321 204.625 419.001 203.905C419.701 203.165 420.051 202.275 420.051 201.235C420.051 200.335 419.831 199.635 419.391 199.135C418.951 198.635 418.351 198.285 417.591 198.085C416.831 197.885 415.971 197.785 415.011 197.785H411.021ZM411.021 198.385H414.711C415.571 198.385 416.351 198.265 417.051 198.025C417.771 197.765 418.351 197.385 418.791 196.885C419.231 196.365 419.451 195.715 419.451 194.935C419.451 194.035 419.231 193.315 418.791 192.775C418.351 192.215 417.771 191.815 417.051 191.575C416.351 191.315 415.571 191.185 414.711 191.185H411.021V193.285H414.711C415.431 193.285 416.001 193.455 416.421 193.795C416.841 194.115 417.051 194.545 417.051 195.085C417.051 195.345 416.991 195.595 416.871 195.835C416.771 196.055 416.621 196.255 416.421 196.435C416.221 196.615 415.971 196.755 415.671 196.855C415.391 196.935 415.071 196.975 414.711 196.975H411.021V198.385ZM409.611 191.185V204.985H412.011V191.185H409.611ZM424.285 200.935C424.285 200.375 424.415 199.895 424.675 199.495C424.935 199.095 425.325 198.785 425.845 198.565C426.385 198.345 427.055 198.235 427.855 198.235C428.735 198.235 429.525 198.355 430.225 198.595C430.925 198.815 431.615 199.165 432.295 199.645V198.235C432.155 198.055 431.895 197.825 431.515 197.545C431.135 197.245 430.625 196.985 429.985 196.765C429.365 196.525 428.615 196.405 427.735 196.405C426.535 196.405 425.495 196.595 424.615 196.975C423.735 197.335 423.055 197.855 422.575 198.535C422.095 199.215 421.855 200.045 421.855 201.025C421.855 201.965 422.065 202.755 422.485 203.395C422.925 204.015 423.505 204.485 424.225 204.805C424.945 205.125 425.735 205.285 426.595 205.285C427.555 205.285 428.425 205.125 429.205 204.805C429.985 204.465 430.605 203.985 431.065 203.365C431.545 202.725 431.785 201.965 431.785 201.085L431.305 199.585C431.305 200.445 431.125 201.135 430.765 201.655C430.425 202.175 429.945 202.555 429.325 202.795C428.705 203.035 427.995 203.155 427.195 203.155C426.655 203.155 426.165 203.075 425.725 202.915C425.285 202.735 424.935 202.485 424.675 202.165C424.415 201.825 424.285 201.415 424.285 200.935ZM424.285 194.425C424.505 194.265 424.805 194.075 425.185 193.855C425.585 193.615 426.055 193.415 426.595 193.255C427.135 193.075 427.735 192.985 428.395 192.985C429.155 192.985 429.825 193.165 430.405 193.525C431.005 193.865 431.305 194.385 431.305 195.085V204.985H433.705V195.085C433.705 194.185 433.475 193.425 433.015 192.805C432.575 192.185 431.955 191.715 431.155 191.395C430.375 191.055 429.455 190.885 428.395 190.885C427.155 190.885 426.095 191.075 425.215 191.455C424.335 191.835 423.635 192.215 423.115 192.595L424.285 194.425Z" fill="#F7F7F7"/>
<path fill-rule="evenodd" clip-rule="evenodd" d="M17.4315 1.37179C16.1855 4.66874 16.7675 12.735 18.3475 14.0661C20.8805 16.2005 21.9335 13.861 21.6075 6.82948C21.3735 1.80739 20.9385 0.272126 19.6815 0.029449C18.7885 -0.143166 17.7755 0.460987 17.4315 1.37179ZM0.909547 18.0048C0.142547 18.4983 -0.209453 19.6345 0.128547 20.528C0.604547 21.7871 2.20355 22.1537 7.21555 22.1537C13.9205 22.1537 15.8465 21.0966 13.7695 18.5551C12.4185 16.9031 3.23455 16.5102 0.909547 18.0048ZM26.0555 17.7489C25.3685 18.0312 24.8055 19.137 24.8055 20.2072C24.8055 21.9374 25.5725 22.1537 31.6985 22.1537C38.7105 22.1537 41.0675 20.7951 38.5275 18.216C37.4195 17.091 28.4785 16.7559 26.0555 17.7489ZM122.806 22.1537C122.806 24.1844 123.306 25.1998 124.306 25.1998C125.131 25.1998 125.806 24.5144 125.806 23.6767C125.806 22.3385 133.639 22.1537 190.306 22.1537H254.806V122.677V223.2H243.806H232.806V219.341C232.806 215.142 231.354 212.897 229.184 213.742C228.303 214.085 227.806 215.886 227.806 218.739V223.2H176.806C132.139 223.2 125.806 223.011 125.806 221.677C125.806 220.839 125.131 220.154 124.306 220.154C123.306 220.154 122.806 221.169 122.806 223.2V226.246H175.306C209.639 226.246 227.806 226.597 227.806 227.261C227.806 227.82 228.706 228.277 229.806 228.277C230.906 228.277 231.806 227.82 231.806 227.261C231.806 226.641 236.473 226.246 243.806 226.246H255.806V122.677V19.1075H189.306H122.806V22.1537ZM17.4125 26.8062C16.3885 29.5162 16.7395 37.9266 17.9275 39.1329C20.4675 41.712 21.8055 39.3187 21.8055 32.1989C21.8055 26.0091 21.5865 25.1998 19.9125 25.1998C18.8715 25.1998 17.7465 25.9228 17.4125 26.8062ZM111.407 27.0651C110.171 29.0948 102.842 57.1438 100.883 67.3383C97.4776 85.0557 97.7855 84.3521 96.1815 78.1135C93.1395 66.2752 83.5335 50.8322 76.5055 46.4813C72.3615 43.9154 66.5255 43.957 61.1665 46.5909C53.6675 50.2778 41.3325 65.7939 39.2945 74.1058C38.8805 75.7974 37.5225 77.2779 35.6715 78.0567C32.1455 79.5391 29.8055 83.6951 29.8055 88.4735C29.8055 95.7041 37.4445 100.776 44.0895 97.9572C48.3805 96.1366 50.8055 92.7432 50.8055 88.5598C50.8055 86.7981 51.4515 84.812 52.2415 84.1459C56.0155 80.9658 61.0065 89.1101 65.2756 105.415C68.6166 118.177 68.6095 118.238 63.8735 118.883C54.7405 120.127 42.6195 128.37 37.2495 136.991C33.6495 142.768 31.8045 150.65 31.8205 160.177C31.8505 177.991 38.3095 194.754 51.1885 210.447C54.9075 214.977 55.2735 215.917 54.9765 220.173C54.7035 224.068 55.1035 225.435 57.2865 228.069C60.6315 232.106 65.3485 233.135 70.0695 230.861C74.0695 228.934 75.8055 225.721 75.8055 220.244C75.8055 215.805 72.1265 211.234 67.8535 210.363C65.5765 209.9 65.0525 208.855 62.9265 200.53C59.3745 186.622 58.5735 180.799 59.1245 172.873C59.7095 164.463 61.3675 159.949 65.7215 154.913L68.8876 151.252L81.0965 175.63C87.8116 189.037 94.7925 201.786 96.6096 203.96C101.28 209.547 112.791 215.147 120.967 215.811C131.519 216.668 142.419 212.314 149.926 204.245C153.5 200.403 174.384 160.47 176.73 152.991C177.994 148.963 179.685 148.096 186.306 148.079C191.145 148.066 196.492 151.151 197.831 154.728C199.361 158.813 198.985 165.788 196.749 174.799C192.725 191.021 192.843 190.708 190.783 190.708C189.713 190.708 187.368 192.041 185.572 193.67C182.768 196.214 182.306 197.303 182.306 201.369C182.306 205.435 182.768 206.524 185.572 209.068C190.089 213.166 195.523 213.166 200.04 209.068C202.96 206.419 203.307 205.524 203.317 200.624C203.328 195.577 203.69 194.724 207.873 189.868C213.734 183.066 219.927 172.529 222.931 164.253C224.872 158.904 225.306 155.756 225.306 147.03C225.306 137.013 225.103 135.934 222.019 129.568C217.604 120.455 211.797 115.326 203.223 112.97C197.67 111.444 195.757 111.347 190.553 112.33C187.181 112.967 184.27 113.332 184.084 113.143C183.295 112.342 196.572 100.904 200.269 99.199C206.595 96.2808 215.381 96.6575 221.921 100.127C226.83 102.731 227.326 103.324 228.013 107.408C229.416 115.755 236.236 120.157 243.192 117.206C250.4 114.149 251.838 104.125 245.809 98.9736C244.198 97.5967 242.509 96.3133 242.056 96.1204C241.603 95.9274 239.975 93.1331 238.437 89.9123C230.482 73.2468 211.736 63.7986 192.56 66.7889C177.372 69.1568 165.474 77.9216 158.664 91.7573L155.142 98.9147L153.991 86.6803C153.248 78.7817 151.719 70.6677 149.676 63.7844C146.913 54.4734 146.49 51.4851 146.342 40.193C146.249 33.0822 145.915 27.0021 145.6 26.6823C145.285 26.3634 142.325 26.8122 139.022 27.6814C131.439 29.6766 123.278 29.699 117.806 27.7383C112.904 25.9827 112.116 25.8994 111.407 27.0651ZM138.805 35.8614C138.386 36.9783 135.919 43.033 133.323 49.3152C128.949 59.9006 128.403 60.7383 125.878 60.7383C123.209 60.7383 123.107 60.5047 120.864 49.3152C119.604 43.033 118.37 36.9783 118.122 35.8614C117.691 33.926 118.186 33.8306 128.618 33.8306C139.154 33.8306 139.538 33.9067 138.805 35.8614ZM116.93 54.6612C117.991 61.6988 117.937 62.9224 116.468 65.1989C111.729 72.5431 116.872 81.9933 125.633 82.039C134.134 82.0827 138.979 72.6335 134.28 65.1755C133.07 63.2554 133.323 62.0227 136.528 54.2195C140.091 45.5441 141.755 44.4342 141.791 50.7073C141.799 52.1705 143.153 58.1105 144.798 63.9073C148.678 77.5703 150.287 92.8559 149.166 105.393L148.306 115.017L140.297 117.084C135.892 118.22 130.183 120.403 127.61 121.934C124.745 123.639 122.686 124.318 122.301 123.683C121.954 123.113 119.961 121.763 117.873 120.68C114.448 118.907 111.553 118.045 102.412 116.08L99.5185 115.457L100.185 105.826C101.06 93.1981 105.232 68.2704 108.922 53.6306C113.203 36.6493 112.949 37.1702 114.444 42.2958C115.151 44.7175 116.269 50.2818 116.93 54.6612ZM78.3785 55.0054C84.0385 60.9393 88.7775 70.0108 91.1865 79.5229C93.2185 87.5475 95.0345 103.614 94.6285 109.984L94.3055 115.061L87.4826 115.746C83.7296 116.122 78.9745 116.72 76.9156 117.073L73.1705 117.716L71.4016 109.281C66.9065 87.845 59.1265 75.9954 51.4855 78.9462C48.2125 80.2093 43.8055 78.5136 43.8055 75.9904C43.8055 73.5128 50.7005 62.4441 55.2875 57.5561C60.7015 51.7887 64.5686 49.5772 69.2486 49.5731C72.7056 49.569 73.8326 50.2402 78.3785 55.0054ZM130.363 68.2998C132.757 72.009 130.517 76.3569 125.984 76.7996C121.75 77.2129 119.806 75.5385 119.806 71.479C119.806 67.3698 121.364 65.8152 125.483 65.8152C127.856 65.8152 129.202 66.5006 130.363 68.2998ZM217.502 75.4817C224.988 79.2162 230.344 84.4221 233.893 91.413C236.374 96.2991 236.336 96.558 232.908 98.0993C230.298 99.2721 229.637 99.1452 226.27 96.825C218.499 91.4699 206.422 90.7673 197.52 95.1517C191.74 97.9978 183.215 105.733 178.179 112.699C174.665 117.56 174.305 117.781 170.894 117.178C168.921 116.83 164.494 116.258 161.056 115.91C157.619 115.561 154.806 115.145 154.806 114.984C154.806 113.859 161.178 97.4932 163.172 93.4997C170.803 78.208 185.033 70.2778 202.806 71.412C208.762 71.7928 211.787 72.6305 217.502 75.4817ZM45.6285 85.4152C46.7725 87.8511 46.7415 88.6096 45.4125 90.6688C43.2785 93.9759 40.2345 94.7648 37.2565 92.7838C34.3605 90.8566 33.9355 86.1361 36.4305 83.6017C39.0005 80.9932 44.0155 81.9822 45.6285 85.4152ZM242.977 103.034C243.983 103.958 244.806 105.786 244.806 107.096C244.806 110.01 241.52 113.538 238.806 113.538C237.706 113.538 235.906 112.624 234.806 111.507C229.336 105.953 237.237 97.7592 242.977 103.034ZM203.161 117.682C208.714 119.248 215.054 125.654 218.284 132.964C220.789 138.63 220.995 140.007 220.6 148.445C220.126 158.582 217.798 165.784 211.661 176.094C207.716 182.72 199.307 192.513 198.358 191.584C197.995 191.227 199.072 185.526 200.752 178.913C202.432 172.301 203.806 164.578 203.806 161.753C203.806 149.975 196.005 142.472 184.556 143.237L178.806 143.622V132.616V121.611L181.556 120.471C190.511 116.761 196.947 115.931 203.161 117.682ZM108.158 122.563C111.902 123.617 116.891 125.884 119.245 127.6L123.524 130.721L126.861 128.22C133.975 122.891 140.267 121.251 153.806 121.2C160.681 121.175 168.045 121.527 170.17 121.983L174.034 122.812L173.638 136.556L173.243 150.3L161.274 174.124C148.363 199.825 145.886 203.237 136.874 207.731C132.306 210.009 129.955 210.508 123.785 210.508C117.299 210.508 115.342 210.047 109.571 207.162C105.889 205.322 101.624 202.261 100.092 200.361C98.5596 198.46 92.1305 186.621 85.8055 174.051L74.3055 151.198L73.9806 136.998L73.6565 122.798L77.4806 122.146C79.5845 121.788 81.7555 121.34 82.3055 121.151C85.7486 119.965 102.103 120.858 108.158 122.563ZM68.8055 134.288V144.883L63.4585 150.312C56.1635 157.72 54.2765 163.379 54.3935 177.508C54.4645 186.09 55.0845 190.395 57.5705 199.579C59.2685 205.854 60.2785 211.225 59.8155 211.517C59.3515 211.807 57.0025 209.643 54.5935 206.707C42.3515 191.783 36.8445 177.382 36.8255 160.246C36.8145 149.957 37.9715 145.116 41.9685 138.719C46.4435 131.557 58.6875 123.955 66.0555 123.763L68.8055 123.692V134.288ZM87.8055 139.531C87.8055 145.528 90.0806 150.319 94.9276 154.531C99.4956 158.503 104.616 160.246 111.703 160.246C117.954 160.246 118.742 158.967 116.374 152.669C112.193 141.554 103.45 134.861 93.1096 134.861H87.8055V139.531ZM145.161 136.307C139.752 138.737 134.226 144.683 131.368 151.148C127.704 159.439 128.626 160.678 137.952 159.999C150.43 159.094 158.887 151.414 159.166 140.735L159.306 135.369L153.806 135.131C150.758 135 146.904 135.524 145.161 136.307ZM101.58 142.104C105.945 144.25 111.806 151.027 111.806 153.93C111.806 155.1 110.855 155.324 107.515 154.942C100.146 154.099 92.8055 147.673 92.8055 142.067C92.8055 139.259 95.8195 139.272 101.58 142.104ZM154.806 140.986C154.806 144.124 151.485 149.264 147.903 151.67C144.178 154.173 134.806 156.372 134.806 154.743C134.806 151.532 141.012 144.452 146.306 141.623C149.72 139.798 154.806 139.417 154.806 140.986ZM197.231 197.732C199.566 200.351 198.897 203.764 195.556 206.289L192.806 208.366L190.056 206.289C188.544 205.146 187.157 203.192 186.976 201.945C186.533 198.908 189.489 195.784 192.806 195.784C194.286 195.784 196.277 196.661 197.231 197.732ZM68.4055 215.854C70.8535 217.514 71.9246 221.076 70.6906 223.454C68.5186 227.642 64.8225 228.51 61.6345 225.581C56.7135 221.058 62.9235 212.137 68.4055 215.854ZM210.491 232.722C209.608 235.058 211.956 236.4 216.924 236.4C222.929 236.4 224.806 235.648 224.806 233.245C224.806 231.545 224.009 231.323 217.913 231.323C212.979 231.323 210.87 231.721 210.491 232.722ZM235.279 232.383C233.928 234.603 237.028 236.4 242.178 236.385C248.055 236.366 250.364 235.28 249.483 232.949C249.007 231.689 247.408 231.323 242.396 231.323C238.837 231.323 235.634 231.8 235.279 232.383ZM228.473 239.108C228.106 239.479 227.806 242.692 227.806 246.247C227.806 251.236 228.171 252.852 229.407 253.333C231.695 254.225 232.773 251.887 232.791 245.995C232.808 240.211 230.699 236.847 228.473 239.108Z" fill="#F7F7F7"/>
</svg>
