<?xml version="1.0" standalone="no"?>
<!DOCTYPE svg PUBLIC "-//W3C//DTD SVG 20010904//EN"
 "http://www.w3.org/TR/2001/REC-SVG-20010904/DTD/svg10.dtd">
<svg version="1.0" xmlns="http://www.w3.org/2000/svg"
 width="512.000000pt" height="512.000000pt" viewBox="0 0 512.000000 512.000000"
 preserveAspectRatio="xMidYMid meet">
<metadata>
Created by potrace 1.14, written by Peter Selinger 2001-2017
</metadata>
<g transform="translate(0.000000,512.000000) scale(0.100000,-0.100000)"
fill="#000000" stroke="none">
<path d="M83 5102 c-17 -9 -42 -30 -55 -47 l-23 -30 -3 -1068 -2 -1069 37 23
c42 25 90 57 113 76 8 6 51 41 95 76 214 171 403 425 520 698 39 91 99 288
110 360 3 24 11 62 17 84 6 23 12 224 15 478 l5 437 -398 0 c-357 -1 -402 -3
-431 -18z"/>
<path d="M1209 4753 c0 -203 -2 -397 -5 -433 -12 -171 -58 -392 -119 -570 -36
-106 -153 -338 -222 -445 -124 -189 -319 -400 -484 -525 l-84 -63 65 7 c67 6
114 14 140 21 8 2 31 7 50 10 62 10 183 45 280 81 100 37 284 126 311 150 8 8
19 14 23 14 5 0 45 25 90 56 468 325 776 833 842 1389 11 94 12 112 13 248 l1
127 450 0 450 0 1 -132 c2 -180 4 -206 28 -344 149 -861 856 -1525 1726 -1620
l59 -6 -71 53 c-151 114 -323 291 -436 449 -26 36 -51 70 -55 75 -45 56 -209
386 -227 455 0 3 -11 34 -22 70 -50 150 -82 312 -98 505 -2 17 -3 202 -4 413
l-1 382 -1350 0 -1350 0 -1 -367z"/>
<path d="M4213 4693 c5 -458 5 -450 43 -622 60 -268 179 -517 351 -736 112
-141 335 -341 476 -424 l37 -23 0 1057 c0 1026 -1 1057 -19 1094 -40 78 -26
76 -484 79 l-409 3 5 -428z"/>
<path d="M2500 3593 c-40 -14 -78 -72 -159 -239 l-89 -180 -88 -12 c-49 -7
-102 -14 -119 -17 -59 -10 -91 -14 -140 -20 -94 -12 -148 -53 -164 -127 -16
-68 6 -101 170 -260 l151 -148 -32 -187 c-18 -104 -34 -202 -35 -218 -4 -48
30 -109 74 -133 76 -43 76 -43 459 159 33 17 34 17 100 -18 341 -181 347 -184
422 -142 62 35 89 107 69 184 -4 16 -10 48 -14 70 -3 22 -15 95 -26 163 l-21
122 152 148 c163 159 185 192 169 260 -15 69 -69 114 -149 126 -19 2 -57 8
-85 12 -27 3 -57 8 -65 9 -9 2 -43 7 -75 11 -33 4 -63 9 -67 10 -5 1 -22 2
-38 3 -29 1 -34 9 -120 184 -93 189 -114 222 -157 238 -26 10 -98 11 -123 2z"/>
<path d="M940 2552 c-208 -76 -416 -120 -650 -137 -19 -2 -92 -3 -162 -4
l-128 -1 0 -384 c0 -450 1 -456 87 -500 42 -21 90 -20 133 4 147 81 239 110
357 114 134 5 253 -25 373 -92 36 -20 78 -38 94 -40 44 -5 109 24 137 61 24
32 24 34 24 267 0 129 -4 259 -8 289 -19 120 -94 305 -164 406 l-28 41 -65
-24z"/>
<path d="M4078 2522 c-52 -82 -93 -167 -118 -247 -43 -139 -49 -192 -47 -445
2 -221 2 -226 26 -257 49 -66 142 -78 220 -29 46 29 147 73 187 81 152 31 262
26 389 -17 55 -19 132 -55 145 -68 13 -13 64 -30 91 -30 33 0 85 23 110 49 36
38 39 76 39 467 l0 384 -142 1 c-79 0 -150 2 -158 3 -8 2 -53 7 -99 10 -47 4
-87 9 -91 11 -3 2 -26 6 -50 10 -25 3 -65 11 -90 17 -25 5 -54 11 -65 14 -47
9 -193 55 -260 82 l-51 20 -36 -56z"/>
<path d="M317 1189 c-112 -38 -195 -104 -253 -202 -59 -100 -63 -134 -64 -514
-1 -379 2 -398 63 -444 l32 -24 645 -3 c730 -3 699 -6 746 73 24 41 24 45 24
288 l0 247 149 0 150 0 3 -257 c3 -282 3 -279 67 -329 25 -18 50 -19 666 -22
724 -3 694 -6 741 73 24 41 24 45 24 288 l0 247 150 0 150 0 0 -246 c0 -235 1
-248 22 -285 44 -79 -5 -74 720 -77 590 -2 651 -1 680 14 43 22 75 60 82 98 4
17 6 183 6 368 -1 359 -4 388 -53 488 -50 102 -189 208 -303 229 -66 13 -725
14 -790 2 -125 -24 -261 -128 -313 -239 l-24 -52 -177 0 -177 0 -24 52 c-48
104 -170 201 -294 234 -65 18 -717 20 -797 3 -125 -27 -257 -129 -307 -237
l-24 -52 -177 0 -177 0 -24 52 c-30 65 -128 165 -193 197 -99 49 -126 51 -521
50 -341 0 -375 -2 -428 -20z"/>
</g>
</svg>
